<?xml version="1.0" encoding="UTF-8" standalone="no"?>
<svg
   xmlns:dc="http://purl.org/dc/elements/1.1/"
   xmlns:cc="http://creativecommons.org/ns#"
   xmlns:rdf="http://www.w3.org/1999/02/22-rdf-syntax-ns#"
   xmlns:svg="http://www.w3.org/2000/svg"
   xmlns="http://www.w3.org/2000/svg"
   xmlns:sodipodi="http://sodipodi.sourceforge.net/DTD/sodipodi-0.dtd"
   xmlns:inkscape="http://www.inkscape.org/namespaces/inkscape"
   width="16"
   height="16"
   version="1.1"
   viewBox="0 0 16 16"
   id="svg2"
   inkscape:version="0.91 r13725"
   sodipodi:docname="icon_o_s_ctransmitter_work.svg">
  <metadata
     id="metadata12">
    <rdf:RDF>
      <cc:Work
         rdf:about="">
        <dc:format>image/svg+xml</dc:format>
        <dc:type
           rdf:resource="http://purl.org/dc/dcmitype/StillImage" />
        <dc:title></dc:title>
      </cc:Work>
    </rdf:RDF>
  </metadata>
  <defs
     id="defs10" />
  <sodipodi:namedview
     pagecolor="#ffffff"
     bordercolor="#666666"
     borderopacity="1"
     objecttolerance="10"
     gridtolerance="10"
     guidetolerance="10"
     inkscape:pageopacity="0"
     inkscape:pageshadow="2"
     inkscape:window-width="1133"
     inkscape:window-height="971"
     id="namedview8"
     showgrid="false"
     inkscape:zoom="20.85965"
     inkscape:cx="6.8018316"
     inkscape:cy="0.14108484"
     inkscape:window-x="742"
     inkscape:window-y="0"
     inkscape:window-maximized="0"
     inkscape:current-layer="svg2" />
  <path
     style="fill:#e0e0e0;fill-opacity:0.99607999"
     d="M 7 1 L 7 4 L 5 4 L 8 8 L 11 4 L 9 4 L 9 1 L 7 1 z M 1.6875 8.5429688 L 0.67773438 9.5546875 L 0.67773438 13.595703 L 1.6875 14.607422 L 3.9980469 14.607422 L 5.0078125 13.595703 L 5.0078125 9.5546875 L 3.9980469 8.5429688 L 1.6875 8.5429688 z M 6.8847656 8.5429688 L 5.875 9.5546875 L 5.875 10.998047 L 6.8847656 12.007812 L 8.90625 12.007812 L 9.3398438 12.441406 L 9.3398438 13.306641 L 8.90625 13.740234 L 7.1738281 13.740234 L 6.7402344 13.306641 L 6.7402344 13.019531 L 6.5957031 12.875 L 6.0195312 12.875 L 5.875 13.019531 L 5.875 13.595703 L 6.8847656 14.607422 L 9.1953125 14.607422 L 10.205078 13.595703 L 10.205078 12.152344 L 9.1953125 11.142578 L 7.1738281 11.142578 L 6.7402344 10.708984 L 6.7402344 9.8417969 L 7.1738281 9.4101562 L 8.90625 9.4101562 L 9.3398438 9.8417969 L 9.3398438 10.130859 L 9.484375 10.275391 L 10.060547 10.275391 L 10.205078 10.130859 L 10.205078 9.5546875 L 9.1953125 8.5429688 L 6.8847656 8.5429688 z M 12.082031 8.5429688 L 11.072266 9.5546875 L 11.072266 13.595703 L 12.082031 14.607422 L 14.392578 14.607422 L 15.402344 13.595703 L 15.402344 13.019531 L 15.257812 12.875 L 14.679688 12.875 L 14.537109 13.019531 L 14.537109 13.306641 L 14.103516 13.740234 L 12.371094 13.740234 L 11.9375 13.306641 L 11.9375 9.8417969 L 12.371094 9.4101562 L 14.103516 9.4101562 L 14.537109 9.8417969 L 14.537109 10.130859 L 14.679688 10.275391 L 15.257812 10.275391 L 15.402344 10.130859 L 15.402344 9.5546875 L 14.392578 8.5429688 L 12.082031 8.5429688 z M 1.9765625 9.4101562 L 3.7089844 9.4101562 L 4.1425781 9.8417969 L 4.1425781 13.306641 L 3.7089844 13.740234 L 1.9765625 13.740234 L 1.5429688 13.306641 L 1.5429688 9.8417969 L 1.9765625 9.4101562 z "
     id="path6" />
  <flowRoot
     xml:space="preserve"
     id="flowRoot4133"
     style="font-style:normal;font-variant:normal;font-weight:500;font-stretch:normal;font-size:40px;line-height:125%;font-family:'Press Start 2P';-inkscape-font-specification:'Press Start 2P Medium';letter-spacing:0px;word-spacing:0px;fill:#000000;fill-opacity:1;stroke:none;stroke-width:1px;stroke-linecap:butt;stroke-linejoin:miter;stroke-opacity:1"
     transform="translate(40.178071,8.7549572)"><flowRegion
       id="flowRegion4135"><rect
         id="rect4137"
         width="111.83051"
         height="66.033897"
         x="-1.1864407"
         y="9.7966099"
         style="font-style:normal;font-variant:normal;font-weight:500;font-stretch:normal;font-family:'Press Start 2P';-inkscape-font-specification:'Press Start 2P Medium'" /></flowRegion><flowPara
       id="flowPara4139"
       style="font-style:normal;font-variant:normal;font-weight:500;font-stretch:normal;font-size:6.25px;font-family:'Press Start 2P';-inkscape-font-specification:'Press Start 2P Medium'">OSC</flowPara></flowRoot></svg>
