<?xml version="1.0" encoding="UTF-8" standalone="no"?>
<svg
   xmlns:dc="http://purl.org/dc/elements/1.1/"
   xmlns:cc="http://creativecommons.org/ns#"
   xmlns:rdf="http://www.w3.org/1999/02/22-rdf-syntax-ns#"
   xmlns:svg="http://www.w3.org/2000/svg"
   xmlns="http://www.w3.org/2000/svg"
   xmlns:sodipodi="http://sodipodi.sourceforge.net/DTD/sodipodi-0.dtd"
   xmlns:inkscape="http://www.inkscape.org/namespaces/inkscape"
   width="16"
   height="16"
   version="1.1"
   viewBox="0 0 16 16"
   id="svg2"
   inkscape:version="0.91 r13725"
   sodipodi:docname="icon_o_s_csender.svg">
  <metadata
     id="metadata12">
    <rdf:RDF>
      <cc:Work
         rdf:about="">
        <dc:format>image/svg+xml</dc:format>
        <dc:type
           rdf:resource="http://purl.org/dc/dcmitype/StillImage" />
        <dc:title></dc:title>
      </cc:Work>
    </rdf:RDF>
  </metadata>
  <defs
     id="defs10" />
  <sodipodi:namedview
     pagecolor="#ffffff"
     bordercolor="#666666"
     borderopacity="1"
     objecttolerance="10"
     gridtolerance="10"
     guidetolerance="10"
     inkscape:pageopacity="0"
     inkscape:pageshadow="2"
     inkscape:window-width="1920"
     inkscape:window-height="1054"
     id="namedview8"
     showgrid="false"
     inkscape:zoom="28.461048"
     inkscape:cx="7.7097919"
     inkscape:cy="6.6300136"
     inkscape:window-x="0"
     inkscape:window-y="0"
     inkscape:window-maximized="1"
     inkscape:current-layer="svg2" />
  <path
     style="fill:#e0e0e0;fill-opacity:0.99607999"
     d="M 8 1 L 5 5 L 7 5 L 7 8 L 9 8 L 9 5 L 11 5 L 8 1 z M 1.6875 8.1933594 L 1.4394531 8.2949219 L 0.4296875 9.3066406 L 0.328125 9.5546875 L 0.328125 13.595703 L 0.4296875 13.84375 L 1.4394531 14.855469 L 1.6875 14.957031 L 3.9980469 14.957031 L 4.2460938 14.855469 L 5.2558594 13.84375 L 5.3574219 13.595703 L 5.3574219 9.5546875 L 5.2558594 9.3066406 L 4.2460938 8.2949219 L 3.9980469 8.1933594 L 1.6875 8.1933594 z M 6.8847656 8.1933594 L 6.6367188 8.2949219 L 5.6269531 9.3066406 L 5.5253906 9.5546875 L 5.5253906 10.998047 L 5.6269531 11.246094 L 6.6367188 12.255859 L 6.8847656 12.357422 L 8.7617188 12.357422 L 8.9902344 12.585938 L 8.9902344 13.162109 L 8.7617188 13.390625 L 7.3183594 13.390625 L 7.0898438 13.162109 L 7.0898438 13.019531 L 6.9882812 12.771484 L 6.84375 12.626953 L 6.5957031 12.525391 L 6.0195312 12.525391 L 5.7714844 12.626953 L 5.6269531 12.771484 L 5.5253906 13.019531 L 5.5253906 13.595703 L 5.6269531 13.84375 L 6.6367188 14.855469 L 6.8847656 14.957031 L 9.1953125 14.957031 L 9.4433594 14.855469 L 10.453125 13.84375 L 10.554688 13.595703 L 10.554688 12.152344 L 10.453125 11.904297 L 9.4433594 10.894531 L 9.1953125 10.792969 L 7.3183594 10.792969 L 7.0898438 10.564453 L 7.0898438 9.9863281 L 7.3183594 9.7597656 L 8.7617188 9.7597656 L 8.9902344 9.9863281 L 8.9902344 10.130859 L 9.0917969 10.378906 L 9.2363281 10.523438 L 9.484375 10.625 L 10.060547 10.625 L 10.308594 10.523438 L 10.453125 10.378906 L 10.554688 10.130859 L 10.554688 9.5546875 L 10.453125 9.3066406 L 9.4433594 8.2949219 L 9.1953125 8.1933594 L 6.8847656 8.1933594 z M 12.082031 8.1933594 L 11.833984 8.2949219 L 10.824219 9.3066406 L 10.722656 9.5546875 L 10.722656 13.595703 L 10.824219 13.84375 L 11.833984 14.855469 L 12.082031 14.957031 L 14.392578 14.957031 L 14.640625 14.855469 L 15.650391 13.84375 L 15.751953 13.595703 L 15.751953 13.019531 L 15.650391 12.771484 L 15.505859 12.626953 L 15.257812 12.525391 L 14.679688 12.525391 L 14.429688 12.628906 L 14.287109 12.773438 L 14.1875 13.019531 L 14.1875 13.162109 L 13.958984 13.390625 L 12.515625 13.390625 L 12.287109 13.162109 L 12.287109 9.9863281 L 12.515625 9.7597656 L 13.958984 9.7597656 L 14.1875 9.9863281 L 14.1875 10.130859 L 14.287109 10.376953 L 14.429688 10.521484 L 14.679688 10.625 L 15.257812 10.625 L 15.505859 10.523438 L 15.650391 10.378906 L 15.751953 10.130859 L 15.751953 9.5546875 L 15.650391 9.3066406 L 14.640625 8.2949219 L 14.392578 8.1933594 L 12.082031 8.1933594 z M 2.1210938 9.7597656 L 3.5644531 9.7597656 L 3.7929688 9.9863281 L 3.7929688 13.162109 L 3.5644531 13.390625 L 2.1210938 13.390625 L 1.8925781 13.162109 L 1.8925781 9.9863281 L 2.1210938 9.7597656 z "
     id="path6" />
</svg>
